
<svg version="1.0" xmlns="http://www.w3.org/2000/svg"
 width="468.000000pt" height="487.000000pt" viewBox="0 0 468.000000 487.000000"
 preserveAspectRatio="xMidYMid meet">

<g transform="translate(0.000000,487.000000) scale(0.100000,-0.100000)"
fill="#000000" stroke="none">
<path d="M1375 4429 c-115 -6 -306 -8 -423 -5 l-213 6 3 -42 3 -42 106 -31
c58 -16 114 -36 123 -44 15 -12 16 -93 16 -952 l0 -939 -23 -14 c-12 -8 -68
-27 -125 -42 l-103 -28 3 -37 3 -38 547 -3 548 -3 0 -752 0 -753 -22 -14 c-13
-8 -69 -27 -126 -42 l-103 -28 3 -38 3 -38 478 -3 478 -2 -3 40 -3 39 -98 31
c-59 18 -104 38 -113 49 -12 17 -14 149 -14 836 l0 817 61 48 c152 120 220
262 221 465 1 167 -45 275 -163 384 -71 66 -161 112 -275 141 l-87 21 78 34
c162 71 274 177 326 308 20 48 23 76 24 178 0 119 0 121 -38 196 -44 90 -103
148 -204 200 -175 92 -417 118 -888 97z m390 -163 c108 -28 178 -88 216 -182
21 -53 24 -74 23 -214 0 -138 -2 -161 -23 -214 -59 -149 -188 -211 -421 -204
l-95 3 -3 404 c-2 317 1 406 10 413 21 13 239 9 293 -6z m77 -988 c86 -32 131
-67 173 -132 50 -78 68 -153 69 -281 l1 -110 -248 2 -248 2 3 -42 3 -42 108
-31 c59 -18 114 -38 122 -44 11 -10 15 -37 15 -115 l0 -103 -52 -12 c-53 -13
-248 -16 -299 -5 l-29 7 0 470 0 470 158 -4 c136 -4 166 -8 224 -30z"/>
<path d="M2982 2715 l3 -39 75 -21 c42 -12 81 -25 88 -29 21 -13 13 -61 -17
-107 -17 -24 -198 -229 -404 -455 l-375 -412 270 -408 c148 -225 307 -473 354
-551 l85 -142 362 -3 c199 -2 365 -1 368 2 4 3 4 21 2 41 -5 36 -5 36 -96 63
-111 33 -162 61 -203 112 -25 32 -469 680 -681 995 l-51 75 250 280 c418 468
435 483 613 531 49 14 93 28 97 32 4 3 5 22 2 41 l-6 35 -369 0 -370 0 3 -40z"/>
</g>
</svg>
